<svg xmlns="http://www.w3.org/2000/svg" viewBox="0 0 900 680"><defs><linearGradient id="b" x1="0" x2="1"><stop stop-color="#fff6e6"/><stop offset="1" stop-color="#ffd782"/></linearGradient><filter id="s"><feDropShadow dx="0" dy="20" stdDeviation="16" flood-opacity=".25"/></filter></defs><rect width="900" height="680" rx="52" fill="url(#b)"/><g filter="url(#s)"><ellipse cx="450" cy="360" rx="302" ry="212" fill="#fffaf0"/><ellipse cx="450" cy="360" rx="232" ry="158" fill="#e8cda4"/><path d="M335 302c72-85 248-74 305 24 56 97-35 188-164 191-151 3-227-113-141-215z" fill="#c87426"/><path d="M386 320c55 31 126 42 199 24" stroke="#f5b45a" stroke-width="16" stroke-linecap="round" opacity=".75"/><circle cx="600" cy="455" r="42" fill="#73b94b"/><circle cx="535" cy="485" r="35" fill="#2d944d"/><ellipse cx="350" cy="456" rx="118" ry="62" fill="#fff7df"/><g fill="#f5b43c"><rect x="477" y="440" width="45" height="90" rx="18" transform="rotate(16 477 440)"/><rect x="515" y="436" width="45" height="94" rx="18" transform="rotate(16 515 436)"/></g></g><text x="54" y="82" font-family="Georgia,serif" font-size="54" font-weight="700" fill="#4a2110">Pechuga al jugo</text></svg>