<svg xmlns="http://www.w3.org/2000/svg" width="360" height="450" viewBox="0 0 360 450"><defs><linearGradient id="g" x1="0" x2="1" y1="0" y2="1"><stop offset="0" stop-color="#162011"/><stop offset=".48" stop-color="#2f4d1e"/><stop offset="1" stop-color="#d6a84f"/></linearGradient><radialGradient id="r" cx="42%" cy="30%" r="70%"><stop offset="0" stop-color="#f6f4ea" stop-opacity=".95"/><stop offset=".35" stop-color="#1fc77a" stop-opacity=".28"/><stop offset="1" stop-color="#050806" stop-opacity="0"/></radialGradient></defs><rect width="360" height="450" fill="url(#g)"/><rect width="360" height="450" fill="url(#r)"/><circle cx="180" cy="158" r="78" fill="#d7b58f"/><path d="M92 151c15-82 148-100 179 3 16 54-13 113-39 134-4-42-28-70-60-70s-58 28-65 72c-31-28-26-92-15-139z" fill="#15150f" opacity=".92"/><ellipse cx="150" cy="160" rx="9" ry="6" fill="#15150f"/><ellipse cx="206" cy="160" rx="9" ry="6" fill="#15150f"/><path d="M152 198c17 15 39 16 58 0" stroke="#7a2f3a" stroke-width="6" fill="none" stroke-linecap="round"/><path d="M103 450c9-113 61-174 77-174s68 61 77 174H103z" fill="#0d120b"/><path d="M121 450c10-94 46-140 59-140s50 46 59 140H121z" fill="#1fc77a" opacity=".38"/><path d="M75 421c34-81 64-121 105-121s74 40 108 121" fill="none" stroke="#d6a84f" stroke-width="9" opacity=".75"/><text x="180" y="402" text-anchor="middle" font-family="Arial, sans-serif" font-size="22" font-weight="700" fill="#f6f4ea">CLARA</text></svg>